<svg xmlns="http://www.w3.org/2000/svg" width="1200" height="420" viewBox="0 0 1200 420" role="img" aria-labelledby="title desc">
  <title id="title">ShiftDx cover</title>
  <desc id="desc">Drift Diagnostics and Recalibration Dashboard</desc>
  
    <defs>
      <linearGradient id="accentGrad" x1="0" x2="1" y1="0" y2="1">
        <stop offset="0" stop-color="#EA580C"/>
        <stop offset="1" stop-color="#0D9488"/>
      </linearGradient>
      <filter id="softShadow" x="-20%" y="-20%" width="140%" height="140%">
        <feDropShadow dx="0" dy="8" stdDeviation="12" flood-color="#0F172A" flood-opacity="0.08"/>
      </filter>
      <pattern id="grid" width="32" height="32" patternUnits="userSpaceOnUse">
        <path d="M 32 0 L 0 0 0 32" fill="none" stroke="#E2E8F0" stroke-width="1" opacity="0.55"/>
      </pattern>
    </defs>
  <rect width="1200" height="420" fill="#F8FAFC"/>
  <rect width="1200" height="420" fill="url(#grid)" opacity="0.36"/>
  <circle cx="1020" cy="88" r="150" fill="#EA580C" opacity="0.045"/>
  <circle cx="114" cy="350" r="120" fill="#0D9488" opacity="0.045"/>
  <g font-family="Inter, ui-sans-serif, system-ui, -apple-system, BlinkMacSystemFont, Segoe UI, sans-serif">
    <rect x="48" y="30" width="1104" height="360" rx="24" fill="#FFFFFF" opacity="0.96" filter="url(#softShadow)"/>
    <rect x="48" y="30" width="1104" height="360" rx="24" fill="none" stroke="#E2E8F0" stroke-width="1.2"/>
    <text x="86" y="82" fill="#0F172A" font-size="42" font-weight="850" letter-spacing="0">ShiftDx</text>
    <text x="88" y="112" fill="#475569" font-size="17" font-weight="550" letter-spacing="0">Drift Diagnostics and Recalibration Dashboard</text>
    <rect x="954" y="56" width="156" height="34" rx="17" fill="#F8FAFC" stroke="#EA580C" stroke-width="1.4"/>
    <text x="1032" y="78" fill="#EA580C" font-size="13" font-weight="800" text-anchor="middle" letter-spacing="0">Streamlit app</text>
    <g transform="translate(0 16)"><rect x="110" y="118" width="260" height="170" rx="14" fill="#FFFFFF" stroke="#E2E8F0" stroke-width="1.2"/><text x="140" y="154" fill="#334155" font-size="15" font-weight="800" text-anchor="start" letter-spacing="0" >Drift trajectory</text><line x1="140" y1="248" x2="336" y2="248" stroke="#CBD5E1" stroke-width="1.2" stroke-linecap="round"/><line x1="140" y1="176" x2="140" y2="248" stroke="#CBD5E1" stroke-width="1.2" stroke-linecap="round"/><path d="M 148 235 C 182 228 202 218 230 205 C 266 188 294 184 336 166" fill="none" stroke="#EA580C" stroke-width="3" stroke-linecap="round" stroke-linejoin="round"/><circle cx="148" cy="235" r="4.5" fill="#EA580C" stroke="#FFFFFF" stroke-width="1.2"/><circle cx="202" cy="218" r="4.5" fill="#EA580C" stroke="#FFFFFF" stroke-width="1.2"/><circle cx="230" cy="205" r="4.5" fill="#EA580C" stroke="#FFFFFF" stroke-width="1.2"/><circle cx="294" cy="184" r="4.5" fill="#EA580C" stroke="#FFFFFF" stroke-width="1.2"/><circle cx="336" cy="166" r="4.5" fill="#EA580C" stroke="#FFFFFF" stroke-width="1.2"/><rect x="420" y="118" width="260" height="170" rx="14" fill="#FFFFFF" stroke="#E2E8F0" stroke-width="1.2"/><text x="450" y="154" fill="#334155" font-size="15" font-weight="800" text-anchor="start" letter-spacing="0" >Subject x session</text><rect x="452" y="178" width="22" height="13" rx="3" fill="#EA580C" stroke="none" stroke-width="1" opacity="0.25"/><rect x="479" y="178" width="22" height="13" rx="3" fill="#CBD5E1" stroke="none" stroke-width="1" opacity="0.37"/><rect x="506" y="178" width="22" height="13" rx="3" fill="#CBD5E1" stroke="none" stroke-width="1" opacity="0.49"/><rect x="533" y="178" width="22" height="13" rx="3" fill="#CBD5E1" stroke="none" stroke-width="1" opacity="0.61"/><rect x="560" y="178" width="22" height="13" rx="3" fill="#EA580C" stroke="none" stroke-width="1" opacity="0.73"/><rect x="587" y="178" width="22" height="13" rx="3" fill="#0D9488" stroke="none" stroke-width="1" opacity="0.25"/><rect x="614" y="178" width="22" height="13" rx="3" fill="#CBD5E1" stroke="none" stroke-width="1" opacity="0.37"/><rect x="452" y="196" width="22" height="13" rx="3" fill="#CBD5E1" stroke="none" stroke-width="1" opacity="0.37"/><rect x="479" y="196" width="22" height="13" rx="3" fill="#CBD5E1" stroke="none" stroke-width="1" opacity="0.49"/><rect x="506" y="196" width="22" height="13" rx="3" fill="#CBD5E1" stroke="none" stroke-width="1" opacity="0.61"/><rect x="533" y="196" width="22" height="13" rx="3" fill="#EA580C" stroke="none" stroke-width="1" opacity="0.73"/><rect x="560" y="196" width="22" height="13" rx="3" fill="#CBD5E1" stroke="none" stroke-width="1" opacity="0.25"/><rect x="587" y="196" width="22" height="13" rx="3" fill="#CBD5E1" stroke="none" stroke-width="1" opacity="0.37"/><rect x="614" y="196" width="22" height="13" rx="3" fill="#CBD5E1" stroke="none" stroke-width="1" opacity="0.49"/><rect x="452" y="214" width="22" height="13" rx="3" fill="#CBD5E1" stroke="none" stroke-width="1" opacity="0.49"/><rect x="479" y="214" width="22" height="13" rx="3" fill="#0D9488" stroke="none" stroke-width="1" opacity="0.61"/><rect x="506" y="214" width="22" height="13" rx="3" fill="#EA580C" stroke="none" stroke-width="1" opacity="0.73"/><rect x="533" y="214" width="22" height="13" rx="3" fill="#CBD5E1" stroke="none" stroke-width="1" opacity="0.25"/><rect x="560" y="214" width="22" height="13" rx="3" fill="#CBD5E1" stroke="none" stroke-width="1" opacity="0.37"/><rect x="587" y="214" width="22" height="13" rx="3" fill="#CBD5E1" stroke="none" stroke-width="1" opacity="0.49"/><rect x="614" y="214" width="22" height="13" rx="3" fill="#EA580C" stroke="none" stroke-width="1" opacity="0.61"/><rect x="452" y="232" width="22" height="13" rx="3" fill="#CBD5E1" stroke="none" stroke-width="1" opacity="0.61"/><rect x="479" y="232" width="22" height="13" rx="3" fill="#EA580C" stroke="none" stroke-width="1" opacity="0.73"/><rect x="506" y="232" width="22" height="13" rx="3" fill="#CBD5E1" stroke="none" stroke-width="1" opacity="0.25"/><rect x="533" y="232" width="22" height="13" rx="3" fill="#CBD5E1" stroke="none" stroke-width="1" opacity="0.37"/><rect x="560" y="232" width="22" height="13" rx="3" fill="#0D9488" stroke="none" stroke-width="1" opacity="0.49"/><rect x="587" y="232" width="22" height="13" rx="3" fill="#EA580C" stroke="none" stroke-width="1" opacity="0.61"/><rect x="614" y="232" width="22" height="13" rx="3" fill="#CBD5E1" stroke="none" stroke-width="1" opacity="0.73"/><rect x="452" y="250" width="22" height="13" rx="3" fill="#EA580C" stroke="none" stroke-width="1" opacity="0.73"/><rect x="479" y="250" width="22" height="13" rx="3" fill="#CBD5E1" stroke="none" stroke-width="1" opacity="0.25"/><rect x="506" y="250" width="22" height="13" rx="3" fill="#0D9488" stroke="none" stroke-width="1" opacity="0.37"/><rect x="533" y="250" width="22" height="13" rx="3" fill="#CBD5E1" stroke="none" stroke-width="1" opacity="0.49"/><rect x="560" y="250" width="22" height="13" rx="3" fill="#EA580C" stroke="none" stroke-width="1" opacity="0.61"/><rect x="587" y="250" width="22" height="13" rx="3" fill="#CBD5E1" stroke="none" stroke-width="1" opacity="0.73"/><rect x="614" y="250" width="22" height="13" rx="3" fill="#CBD5E1" stroke="none" stroke-width="1" opacity="0.25"/><rect x="730" y="118" width="280" height="170" rx="14" fill="#FFFFFF" stroke="#E2E8F0" stroke-width="1.2"/><text x="760" y="154" fill="#334155" font-size="15" font-weight="800" text-anchor="start" letter-spacing="0" >Decision</text><path d="M 792 220 L 872 220" fill="none" stroke="#94A3B8" stroke-width="2.5" stroke-linecap="round" stroke-linejoin="round"/><path d="M 872 220 L 928 188 M 872 220 L 928 252" fill="none" stroke="#94A3B8" stroke-width="2.5" stroke-linecap="round" stroke-linejoin="round"/><rect x="760" y="194" width="86" height="52" rx="12" fill="#FFF7ED" stroke="#EA580C" stroke-width="1.5"/><text x="803" y="226" fill="#EA580C" font-size="15" font-weight="800" text-anchor="middle" letter-spacing="0" >Drift</text><rect x="928" y="166" width="94" height="44" rx="12" fill="#ECFDF5" stroke="#0D9488" stroke-width="1.5"/><text x="975" y="194" fill="#0D9488" font-size="14" font-weight="800" text-anchor="middle" letter-spacing="0" >Adapt</text><rect x="928" y="230" width="94" height="44" rx="12" fill="#FFF7ED" stroke="#EA580C" stroke-width="1.5"/><text x="975" y="258" fill="#EA580C" font-size="14" font-weight="800" text-anchor="middle" letter-spacing="0" >Retrain</text></g>
    <line x1="86" y1="364" x2="1114" y2="364" stroke="#E2E8F0" stroke-width="1"/>
    <circle cx="92" cy="379" r="4" fill="#EA580C"/>
    <text x="108" y="384" fill="#64748B" font-size="13" font-weight="650" letter-spacing="0">Cross-session EEG / BCI methods toolkit</text>
    <text x="1114" y="384" fill="#94A3B8" font-size="12" font-weight="600" text-anchor="end" letter-spacing="0">Yiming Shen</text>
  </g>
</svg>
